<?xml version="1.0" encoding="UTF-8"?>
<svg xmlns="http://www.w3.org/2000/svg" style="display: none;">

    <symbol id="fgx-air-pinned" class="icon icon-tabler icon-tabler-pinned" viewBox="0 0 22 22" stroke-width="2" stroke="currentColor" fill="none" stroke-linecap="round" stroke-linejoin="round">
        <path stroke="none" d="M0 0h24v24H0z" fill="none"></path>
        <path d="M9 4v6l-2 4v2h10v-2l-2 -4v-6"></path>
        <path d="M12 16l0 5"></path>
        <path d="M8 4l8 0"></path>
    </symbol>
    <symbol id="fgx-air-lock" class="icon icon-tabler icon-tabler-lock" viewBox="0 0 22 22" stroke-width="2" stroke="currentColor" fill="none" stroke-linecap="round" stroke-linejoin="round">
        <path stroke="none" d="M0 0h24v24H0z" fill="none"></path>
        <path d="M5 11m0 2a2 2 0 0 1 2 -2h10a2 2 0 0 1 2 2v6a2 2 0 0 1 -2 2h-10a2 2 0 0 1 -2 -2z"></path>
        <path d="M12 16m-1 0a1 1 0 1 0 2 0a1 1 0 1 0 -2 0"></path>
        <path d="M8 11v-4a4 4 0 0 1 8 0v4"></path>
    </symbol>
    <symbol id="fgx-air-search" class="icon icon-tabler icon-tabler-search" viewBox="0 0 22 22" stroke-width="2" stroke="currentColor" fill="none" stroke-linecap="round" stroke-linejoin="round">
        <path stroke="none" d="M0 0h24v24H0z" fill="none"></path>
        <path d="M10 10m-7 0a7 7 0 1 0 14 0a7 7 0 1 0 -14 0"></path>
        <path d="M21 21l-6 -6"></path>
    </symbol>
    <symbol id="fgx-air-hamburger" class="icon icon-tabler icon-tabler-menu-2" viewBox="0 0 22 22" stroke-width="2" stroke="currentColor" fill="none" stroke-linecap="round" stroke-linejoin="round">
        <path stroke="none" d="M0 0h24v24H0z" fill="none"></path>
        <path d="M4 6l16 0"></path>
        <path d="M4 12l16 0"></path>
        <path d="M4 18l16 0"></path>
    </symbol>
    <symbol id="fgx-air-plus" class="icon icon-tabler icon-tabler-plus" viewBox="0 0 22 22" stroke-width="2" stroke="currentColor" fill="none" stroke-linecap="round" stroke-linejoin="round">
        <path stroke="none" d="M0 0h24v24H0z" fill="none"></path>
        <path d="M12 5l0 14"></path>
        <path d="M5 12l14 0"></path>
    </symbol>
    <symbol id="fgx-air-link" class="icon icon-tabler icon-tabler-link" viewBox="0 0 22 22" stroke-width="2" stroke="currentColor" fill="none" stroke-linecap="round" stroke-linejoin="round">
        <path stroke="none" d="M0 0h24v24H0z" fill="none"></path>
        <path d="M10 14a3.5 3.5 0 0 0 5 0l4 -4a3.5 3.5 0 0 0 -5 -5l-.5 .5"></path>
        <path d="M14 10a3.5 3.5 0 0 0 -5 0l-4 4a3.5 3.5 0 0 0 5 5l.5 -.5"></path>
    </symbol>
    <symbol id="fgx-air-dots" class="icon icon-tabler icon-tabler-dots" viewBox="0 0 22 22" stroke-width="2" stroke="currentColor" fill="none" stroke-linecap="round" stroke-linejoin="round">
        <path stroke="none" d="M0 0h24v24H0z" fill="none"></path>
        <path d="M5 12m-1 0a1 1 0 1 0 2 0a1 1 0 1 0 -2 0"></path>
        <path d="M12 12m-1 0a1 1 0 1 0 2 0a1 1 0 1 0 -2 0"></path>
        <path d="M19 12m-1 0a1 1 0 1 0 2 0a1 1 0 1 0 -2 0"></path>
    </symbol>
    <symbol id="fgx-air-reply" class="icon icon-tabler icon-tabler-corner-up-left" viewBox="0 0 22 22" stroke-width="2" stroke="currentColor" fill="none" stroke-linecap="round" stroke-linejoin="round">
        <path stroke="none" d="M0 0h24v24H0z" fill="none"></path>
        <path d="M18 18v-6a3 3 0 0 0 -3 -3h-10l4 -4m0 8l-4 -4"></path>
    </symbol>
    <symbol id="fgx-air-bookmark" class="icon icon-tabler icon-tabler-bookmark" viewBox="0 0 22 22" stroke-width="2" stroke="currentColor" fill="none" stroke-linecap="round" stroke-linejoin="round">
        <path stroke="none" d="M0 0h24v24H0z" fill="none"></path>
        <path d="M9 4h6a2 2 0 0 1 2 2v14l-5 -3l-5 3v-14a2 2 0 0 1 2 -2"></path>
    </symbol>
    <symbol id="fgx-air-flag" class="icon icon-tabler icon-tabler-flag" viewBox="0 0 22 22" stroke-width="2" stroke="currentColor" fill="none" stroke-linecap="round" stroke-linejoin="round">
        <path stroke="none" d="M0 0h24v24H0z" fill="none"></path>
        <path d="M5 5a5 5 0 0 1 7 0a5 5 0 0 0 7 0v9a5 5 0 0 1 -7 0a5 5 0 0 0 -7 0v-9z"></path>
        <path d="M5 21v-7"></path>
    </symbol>
    <symbol id="fgx-air-briefcase" class="icon icon-tabler icon-tabler-briefcase" viewBox="0 0 22 22" stroke-width="2" stroke="currentColor" fill="none" stroke-linecap="round" stroke-linejoin="round">
        <path stroke="none" d="M0 0h24v24H0z" fill="none"></path>
        <path d="M3 7m0 2a2 2 0 0 1 2 -2h14a2 2 0 0 1 2 2v9a2 2 0 0 1 -2 2h-14a2 2 0 0 1 -2 -2z"></path>
        <path d="M8 7v-2a2 2 0 0 1 2 -2h4a2 2 0 0 1 2 2v2"></path>
        <path d="M12 12l0 .01"></path>
        <path d="M3 13a20 20 0 0 0 18 0"></path>
    </symbol>
    <symbol id="fgx-air-calendar-plus" class="icon icon-tabler icon-tabler-calendar-plus" viewBox="0 0 22 22" stroke-width="2" stroke="currentColor" fill="none" stroke-linecap="round" stroke-linejoin="round">
        <path stroke="none" d="M0 0h24v24H0z" fill="none"></path>
        <path d="M4 5m0 2a2 2 0 0 1 2 -2h12a2 2 0 0 1 2 2v12a2 2 0 0 1 -2 2h-12a2 2 0 0 1 -2 -2z"></path>
        <path d="M16 3l0 4"></path>
        <path d="M8 3l0 4"></path>
        <path d="M4 11l16 0"></path>
        <path d="M10 16l4 0"></path>
        <path d="M12 14l0 4"></path>
    </symbol>
    <symbol id="fgx-air-calendar-event" class="icon icon-tabler icon-tabler-calendar-event" viewBox="0 0 22 22" stroke-width="2" stroke="currentColor" fill="none" stroke-linecap="round" stroke-linejoin="round">
        <path stroke="none" d="M0 0h24v24H0z" fill="none"></path>
        <path d="M4 5m0 2a2 2 0 0 1 2 -2h12a2 2 0 0 1 2 2v12a2 2 0 0 1 -2 2h-12a2 2 0 0 1 -2 -2z"></path>
        <path d="M16 3l0 4"></path>
        <path d="M8 3l0 4"></path>
        <path d="M4 11l16 0"></path>
        <path d="M8 15h2v2h-2z"></path>
    </symbol>
    <symbol id="fgx-air-close" class="icon icon-tabler icon-tabler-x" viewBox="0 0 22 22" stroke-width="2" stroke="currentColor" fill="none" stroke-linecap="round" stroke-linejoin="round">
        <path stroke="none" d="M0 0h24v24H0z" fill="none"></path>
        <path d="M18 6l-12 12"></path>
        <path d="M6 6l12 12"></path>
    </symbol>
    <symbol id="fgx-air-undo" class="icon icon-tabler icon-tabler-arrow-back" viewBox="0 0 22 22" stroke-width="2" stroke="currentColor" fill="none" stroke-linecap="round" stroke-linejoin="round">
        <path stroke="none" d="M0 0h24v24H0z" fill="none"></path>
        <path d="M9 11l-4 4l4 4m-4 -4h11a4 4 0 0 0 0 -8h-1"></path>
    </symbol>
    <symbol id="fgx-air-trash" class="icon icon-tabler icon-tabler-trash" viewBox="0 0 22 22" stroke-width="2" stroke="currentColor" fill="none" stroke-linecap="round" stroke-linejoin="round">
        <path stroke="none" d="M0 0h24v24H0z" fill="none"></path>
        <path d="M4 7l16 0"></path>
        <path d="M10 11l0 6"></path>
        <path d="M14 11l0 6"></path>
        <path d="M5 7l1 12a2 2 0 0 0 2 2h8a2 2 0 0 0 2 -2l1 -12"></path>
        <path d="M9 7v-3a1 1 0 0 1 1 -1h4a1 1 0 0 1 1 1v3"></path>
    </symbol>
    <symbol id="fgx-air-pencil" class="icon icon-tabler icon-tabler-pencil" viewBox="0 0 22 22" stroke-width="2" stroke="currentColor" fill="none" stroke-linecap="round" stroke-linejoin="round">
        <path stroke="none" d="M0 0h24v24H0z" fill="none"></path>
        <path d="M4 20h4l10.5 -10.5a1.5 1.5 0 0 0 -4 -4l-10.5 10.5v4"></path>
        <path d="M13.5 6.5l4 4"></path>
    </symbol>
    <symbol id="fgx-air-player-skip-back" class="icon icon-tabler icon-tabler-player-skip-back" viewBox="0 0 22 22" stroke-width="2" stroke="currentColor" fill="none" stroke-linecap="round" stroke-linejoin="round">
        <path stroke="none" d="M0 0h24v24H0z" fill="none"></path>
        <path d="M20 5v14l-12 -7z"></path>
        <path d="M4 5l0 14"></path>
    </symbol>
    <symbol id="fgx-air-player-track-prev" class="icon icon-tabler icon-tabler-player-track-prev" viewBox="0 0 22 22" stroke-width="2" stroke="currentColor" fill="none" stroke-linecap="round" stroke-linejoin="round">
        <path stroke="none" d="M0 0h24v24H0z" fill="none"></path>
        <path d="M21 5v14l-8 -7z"></path>
        <path d="M10 5v14l-8 -7z"></path>
    </symbol>
    <symbol id="fgx-air-player-track-next" class="icon icon-tabler icon-tabler-player-track-next" viewBox="0 0 22 22" stroke-width="2" stroke="currentColor" fill="none" stroke-linecap="round" stroke-linejoin="round">
        <path stroke="none" d="M0 0h24v24H0z" fill="none"></path>
        <path d="M3 5v14l8 -7z"></path>
        <path d="M14 5v14l8 -7z"></path>
    </symbol>
    <symbol id="fgx-air-player-skip-forward" class="icon icon-tabler icon-tabler-player-skip-forward" viewBox="0 0 22 22" stroke-width="2" stroke="currentColor" fill="none" stroke-linecap="round" stroke-linejoin="round">
        <path stroke="none" d="M0 0h24v24H0z" fill="none"></path>
        <path d="M4 5v14l12 -7z"></path>
        <path d="M20 5l0 14"></path>
    </symbol>
    <symbol id="fgx-air-arrows-horizontal" class="icon icon-tabler icon-tabler-arrows-horizontal" viewBox="0 0 22 22" stroke-width="2" stroke="currentColor" fill="none" stroke-linecap="round" stroke-linejoin="round">
        <path stroke="none" d="M0 0h24v24H0z" fill="none"></path>
        <path d="M7 8l-4 4l4 4"></path>
        <path d="M17 8l4 4l-4 4"></path>
        <path d="M3 12l18 0"></path>
    </symbol>
    <symbol id="fgx-air-mail" class="icon icon-tabler icon-tabler-mail" viewBox="0 0 22 22" stroke-width="2" stroke="currentColor" fill="none" stroke-linecap="round" stroke-linejoin="round">
        <path stroke="none" d="M0 0h24v24H0z" fill="none"></path>
        <path d="M3 5m0 2a2 2 0 0 1 2 -2h14a2 2 0 0 1 2 2v10a2 2 0 0 1 -2 2h-14a2 2 0 0 1 -2 -2z"></path>
        <path d="M3 7l9 6l9 -6"></path>
    </symbol>
    <symbol id="fgx-air-checkbox" class="icon icon-tabler icon-tabler-checkbox" viewBox="0 0 22 22" stroke-width="2" stroke="currentColor" fill="none" stroke-linecap="round" stroke-linejoin="round">
        <path stroke="none" d="M0 0h24v24H0z" fill="none"></path>
        <path d="M9 11l3 3l8 -8"></path>
        <path d="M20 12v6a2 2 0 0 1 -2 2h-12a2 2 0 0 1 -2 -2v-12a2 2 0 0 1 2 -2h9"></path>
    </symbol>
    <symbol id="fgx-air-chevron-up" class="icon icon-tabler icon-tabler-chevron-up" viewBox="0 0 22 22" stroke-width="2" stroke="currentColor" fill="none" stroke-linecap="round" stroke-linejoin="round">
        <path stroke="none" d="M0 0h24v24H0z" fill="none"></path>
        <path d="M6 15l6 -6l6 6"></path>
    </symbol>
    <symbol id="fgx-air-chevron-down" class="icon icon-tabler icon-tabler-chevron-down" viewBox="0 0 22 22" stroke-width="2" stroke="currentColor" fill="none" stroke-linecap="round" stroke-linejoin="round">
        <path stroke="none" d="M0 0h24v24H0z" fill="none"></path>
        <path d="M6 9l6 6l6 -6"></path>
    </symbol>
    <symbol id="fgx-air-report-analytics" class="icon icon-tabler icon-tabler-report-analytics" viewBox="0 0 22 22" stroke-width="2" stroke="currentColor" fill="none" stroke-linecap="round" stroke-linejoin="round">
        <path stroke="none" d="M0 0h24v24H0z" fill="none"></path>
        <path d="M9 5h-2a2 2 0 0 0 -2 2v12a2 2 0 0 0 2 2h10a2 2 0 0 0 2 -2v-12a2 2 0 0 0 -2 -2h-2"></path>
        <path d="M9 3m0 2a2 2 0 0 1 2 -2h2a2 2 0 0 1 2 2v0a2 2 0 0 1 -2 2h-2a2 2 0 0 1 -2 -2z"></path>
        <path d="M9 17v-5"></path>
        <path d="M12 17v-1"></path>
        <path d="M15 17v-3"></path>
    </symbol>
    <symbol id="fgx-air-user" class="icon icon-tabler icon-tabler-user" viewBox="0 0 22 22" stroke-width="2" stroke="currentColor" fill="none" stroke-linecap="round" stroke-linejoin="round">
        <path stroke="none" d="M0 0h24v24H0z" fill="none"></path>
        <path d="M12 7m-4 0a4 4 0 1 0 8 0a4 4 0 1 0 -8 0"></path>
        <path d="M6 21v-2a4 4 0 0 1 4 -4h4a4 4 0 0 1 4 4v2"></path>
    </symbol>
    <symbol id="fgx-air-check" class="icon icon-tabler icon-tabler-check" viewBox="0 0 22 22" stroke-width="2" stroke="currentColor" fill="none" stroke-linecap="round" stroke-linejoin="round">
        <path stroke="none" d="M0 0h24v24H0z" fill="none"></path>
        <path d="M5 12l5 5l10 -10"></path>
    </symbol>
    <symbol id="fgx-air-palette" class="icon icon-tabler icon-tabler-palette" viewBox="0 0 22 22" stroke-width="2" stroke="currentColor" fill="none" stroke-linecap="round" stroke-linejoin="round">
        <path stroke="none" d="M0 0h24v24H0z" fill="none"></path>
        <path d="M12 21a9 9 0 0 1 0 -18c4.97 0 9 3.582 9 8c0 1.06 -.474 2.078 -1.318 2.828c-.844 .75 -1.989 1.172 -3.182 1.172h-2.5a2 2 0 0 0 -1 3.75a1.3 1.3 0 0 1 -1 2.25"></path>
        <path d="M8.5 10.5m-1 0a1 1 0 1 0 2 0a1 1 0 1 0 -2 0"></path>
        <path d="M12.5 7.5m-1 0a1 1 0 1 0 2 0a1 1 0 1 0 -2 0"></path>
        <path d="M16.5 10.5m-1 0a1 1 0 1 0 2 0a1 1 0 1 0 -2 0"></path>
    </symbol>
    <symbol id="fgx-air-chevrons-down" class="icon icon-tabler icon-tabler-chevrons-down" viewBox="0 0 22 22" stroke-width="2" stroke="currentColor" fill="none" stroke-linecap="round" stroke-linejoin="round">
        <path stroke="none" d="M0 0h24v24H0z" fill="none"></path>
        <path d="M7 7l5 5l5 -5"></path>
        <path d="M7 13l5 5l5 -5"></path>
    </symbol>
    <symbol id="fgx-air-settings" class="icon icon-tabler icon-tabler-settings" viewBox="0 0 24 24" stroke-width="2" stroke="currentColor" fill="none" stroke-linecap="round" stroke-linejoin="round">
        <path stroke="none" d="M0 0h24v24H0z" fill="none"></path>
        <path d="M10.325 4.317c.426 -1.756 2.924 -1.756 3.35 0a1.724 1.724 0 0 0 2.573 1.066c1.543 -.94 3.31 .826 2.37 2.37a1.724 1.724 0 0 0 1.065 2.572c1.756 .426 1.756 2.924 0 3.35a1.724 1.724 0 0 0 -1.066 2.573c.94 1.543 -.826 3.31 -2.37 2.37a1.724 1.724 0 0 0 -2.572 1.065c-.426 1.756 -2.924 1.756 -3.35 0a1.724 1.724 0 0 0 -2.573 -1.066c-1.543 .94 -3.31 -.826 -2.37 -2.37a1.724 1.724 0 0 0 -1.065 -2.572c-1.756 -.426 -1.756 -2.924 0 -3.35a1.724 1.724 0 0 0 1.066 -2.573c-.94 -1.543 .826 -3.31 2.37 -2.37c1 .608 2.296 .07 2.572 -1.065z"></path>
        <path d="M12 12m-3 0a3 3 0 1 0 6 0a3 3 0 1 0 -6 0"></path>
    </symbol>
    <symbol id="fgx-air-user-plus" class="icon icon-tabler icon-tabler-user-plus" viewBox="1 0 22 22" stroke-width="2" stroke="currentColor" fill="none" stroke-linecap="round" stroke-linejoin="round">
        <path stroke="none" d="M0 0h24v24H0z" fill="none"></path>
        <path d="M9 7m-4 0a4 4 0 1 0 8 0a4 4 0 1 0 -8 0"></path>
        <path d="M3 21v-2a4 4 0 0 1 4 -4h4a4 4 0 0 1 4 4v2"></path>
        <path d="M16 11h6m-3 -3v6"></path>
    </symbol>
    <symbol id="fgx-air-adjustments-horizontal" class="icon icon-tabler icon-tabler-adjustments-horizontal" viewBox="0 0 22 22" stroke-width="2" stroke="currentColor" fill="none" stroke-linecap="round" stroke-linejoin="round">
        <path stroke="none" d="M0 0h24v24H0z" fill="none"></path>
        <path d="M14 6m-2 0a2 2 0 1 0 4 0a2 2 0 1 0 -4 0"></path>
        <path d="M4 6l8 0"></path>
        <path d="M16 6l4 0"></path>
        <path d="M8 12m-2 0a2 2 0 1 0 4 0a2 2 0 1 0 -4 0"></path>
        <path d="M4 12l2 0"></path>
        <path d="M10 12l10 0"></path>
        <path d="M17 18m-2 0a2 2 0 1 0 4 0a2 2 0 1 0 -4 0"></path>
        <path d="M4 18l11 0"></path>
        <path d="M19 18l1 0"></path>
    </symbol>
    <symbol id="fgx-air-stack-2" class="icon icon-tabler icon-tabler-stack-2" viewBox="0 0 22 22" stroke-width="2" stroke="currentColor" fill="none" stroke-linecap="round" stroke-linejoin="round">
        <path stroke="none" d="M0 0h24v24H0z" fill="none"></path>
        <path d="M12 4l-8 4l8 4l8 -4l-8 -4"></path>
        <path d="M4 12l8 4l8 -4"></path>
        <path d="M4 16l8 4l8 -4"></path>
    </symbol>
    <symbol id="fgx-air-inbox" class="icon icon-tabler icon-tabler-inbox" viewBox="0 0 22 22" stroke-width="2" stroke="currentColor" fill="none" stroke-linecap="round" stroke-linejoin="round">
        <path stroke="none" d="M0 0h24v24H0z" fill="none"></path>
        <path d="M4 4m0 2a2 2 0 0 1 2 -2h12a2 2 0 0 1 2 2v12a2 2 0 0 1 -2 2h-12a2 2 0 0 1 -2 -2z"></path>
        <path d="M4 13h3l3 3h4l3 -3h3"></path>
    </symbol>
    <symbol id="fgx-air-keyboard" class="icon icon-tabler icon-tabler-keyboard" viewBox="1 0 22 22" stroke-width="2" stroke="currentColor" fill="none" stroke-linecap="round" stroke-linejoin="round">
        <path stroke="none" d="M0 0h24v24H0z" fill="none"></path>
        <path d="M2 6m0 2a2 2 0 0 1 2 -2h16a2 2 0 0 1 2 2v8a2 2 0 0 1 -2 2h-16a2 2 0 0 1 -2 -2z"></path>
        <path d="M6 10l0 0"></path>
        <path d="M10 10l0 0"></path>
        <path d="M14 10l0 0"></path>
        <path d="M18 10l0 0"></path>
        <path d="M6 14l0 .01"></path>
        <path d="M18 14l0 .01"></path>
        <path d="M10 14l4 0"></path>
    </symbol>
    <symbol id="fgx-air-power" class="icon icon-tabler icon-tabler-power" viewBox="0 0 22 22" stroke-width="2" stroke="currentColor" fill="none" stroke-linecap="round" stroke-linejoin="round">
        <path stroke="none" d="M0 0h24v24H0z" fill="none"></path>
        <path d="M7 6a7.75 7.75 0 1 0 10 0"></path>
        <path d="M12 4l0 8"></path>
    </symbol>
    <symbol id="fgx-air-world" class="icon icon-tabler icon-tabler-world" viewBox="0 0 22 22" stroke-width="2" stroke="currentColor" fill="none" stroke-linecap="round" stroke-linejoin="round">
        <path stroke="none" d="M0 0h24v24H0z" fill="none"></path>
        <path d="M12 12m-9 0a9 9 0 1 0 18 0a9 9 0 1 0 -18 0"></path>
        <path d="M3.6 9l16.8 0"></path>
        <path d="M3.6 15l16.8 0"></path>
        <path d="M11.5 3a17 17 0 0 0 0 18"></path>
        <path d="M12.5 3a17 17 0 0 1 0 18"></path>
    </symbol>
    <symbol id="fgx-air-shield-half-filled" class="icon icon-tabler icon-tabler-shield-half-filled" viewBox="0 0 22 22" stroke-width="2" stroke="currentColor" fill="none" stroke-linecap="round" stroke-linejoin="round">
        <path stroke="none" d="M0 0h24v24H0z" fill="none"></path>
        <path d="M12 3a12 12 0 0 0 8.5 3a12 12 0 0 1 -8.5 15a12 12 0 0 1 -8.5 -15a12 12 0 0 0 8.5 -3"></path>
        <path d="M12 3v18"></path>
        <path d="M12 11h8.9"></path>
        <path d="M12 8h8.9"></path>
        <path d="M12 5h3.1"></path>
        <path d="M12 17h6.2"></path>
        <path d="M12 14h8"></path>
    </symbol>
    <symbol id="fgx-air-lock-open" class="icon icon-tabler icon-tabler-lock-open" viewBox="0 0 22 22" stroke-width="2" stroke="currentColor" fill="none" stroke-linecap="round" stroke-linejoin="round">
        <path stroke="none" d="M0 0h24v24H0z" fill="none"></path>
        <path d="M5 11m0 2a2 2 0 0 1 2 -2h10a2 2 0 0 1 2 2v6a2 2 0 0 1 -2 2h-10a2 2 0 0 1 -2 -2z"></path>
        <path d="M12 16m-1 0a1 1 0 1 0 2 0a1 1 0 1 0 -2 0"></path>
        <path d="M8 11v-5a4 4 0 0 1 8 0"></path>
    </symbol>
    <symbol id="fgx-air-microphone-off" class="icon icon-tabler icon-tabler-microphone-off" viewBox="0 0 22 22" stroke-width="2" stroke="currentColor" fill="none" stroke-linecap="round" stroke-linejoin="round">
        <path stroke="none" d="M0 0h24v24H0z" fill="none"></path>
        <path d="M3 3l18 18"></path>
        <path d="M9 5a3 3 0 0 1 6 0v5a3 3 0 0 1 -.13 .874m-2 2a3 3 0 0 1 -3.87 -2.872v-1"></path>
        <path d="M5 10a7 7 0 0 0 10.846 5.85m2 -2a6.967 6.967 0 0 0 1.152 -3.85"></path>
        <path d="M8 21l8 0"></path>
        <path d="M12 17l0 4"></path>
    </symbol>
    <symbol id="fgx-air-alert-triangle" class="icon icon-tabler icon-tabler-alert-triangle" viewBox="0 0 22 22" stroke-width="2" stroke="currentColor" fill="none" stroke-linecap="round" stroke-linejoin="round">
        <path stroke="none" d="M0 0h24v24H0z" fill="none"></path>
        <path d="M12 9v2m0 4v.01"></path>
        <path d="M5 19h14a2 2 0 0 0 1.84 -2.75l-7.1 -12.25a2 2 0 0 0 -3.5 0l-7.1 12.25a2 2 0 0 0 1.75 2.75"></path>
    </symbol>
    <symbol id="fgx-air-award" class="icon icon-tabler icon-tabler-award" viewBox="0 0 22 22" stroke-width="2" stroke="currentColor" fill="none" stroke-linecap="round" stroke-linejoin="round">
        <path stroke="none" d="M0 0h24v24H0z" fill="none"></path>
        <path d="M12 9m-6 0a6 6 0 1 0 12 0a6 6 0 1 0 -12 0"></path>
        <path d="M12 15l3.4 5.89l1.598 -3.233l3.598 .232l-3.4 -5.889"></path>
        <path d="M6.802 12l-3.4 5.89l3.598 -.233l1.598 3.232l3.4 -5.889"></path>
    </symbol>
    <symbol id="fgx-air-tool" class="icon icon-tabler icon-tabler-tool" viewBox="0 0 22 22" stroke-width="2" stroke="currentColor" fill="none" stroke-linecap="round" stroke-linejoin="round">
        <path stroke="none" d="M0 0h24v24H0z" fill="none"></path>
        <path d="M7 10h3v-3l-3.5 -3.5a6 6 0 0 1 8 8l6 6a2 2 0 0 1 -3 3l-6 -6a6 6 0 0 1 -8 -8l3.5 3.5"></path>
    </symbol>
    <symbol id="fgx-air-layout-grid" class="icon icon-tabler icon-tabler-layout-grid" viewBox="0 0 22 22" stroke-width="2" stroke="currentColor" fill="none" stroke-linecap="round" stroke-linejoin="round">
        <path stroke="none" d="M0 0h24v24H0z" fill="none"></path>
        <path d="M4 4m0 1a1 1 0 0 1 1 -1h4a1 1 0 0 1 1 1v4a1 1 0 0 1 -1 1h-4a1 1 0 0 1 -1 -1z"></path>
        <path d="M14 4m0 1a1 1 0 0 1 1 -1h4a1 1 0 0 1 1 1v4a1 1 0 0 1 -1 1h-4a1 1 0 0 1 -1 -1z"></path>
        <path d="M4 14m0 1a1 1 0 0 1 1 -1h4a1 1 0 0 1 1 1v4a1 1 0 0 1 -1 1h-4a1 1 0 0 1 -1 -1z"></path>
        <path d="M14 14m0 1a1 1 0 0 1 1 -1h4a1 1 0 0 1 1 1v4a1 1 0 0 1 -1 1h-4a1 1 0 0 1 -1 -1z"></path>
    </symbol>
    <symbol id="fgx-air-dots-vertical" class="icon icon-tabler icon-tabler-dots-vertical" viewBox="0 0 22 22" stroke-width="2" stroke="currentColor" fill="none" stroke-linecap="round" stroke-linejoin="round">
        <path stroke="none" d="M0 0h24v24H0z" fill="none"></path>
        <path d="M12 12m-1 0a1 1 0 1 0 2 0a1 1 0 1 0 -2 0"></path>
        <path d="M12 19m-1 0a1 1 0 1 0 2 0a1 1 0 1 0 -2 0"></path>
        <path d="M12 5m-1 0a1 1 0 1 0 2 0a1 1 0 1 0 -2 0"></path>
    </symbol>
    <symbol id="fgx-air-download" class="icon icon-tabler icon-tabler-download" viewBox="0 0 22 22" stroke-width="2" stroke="currentColor" fill="none" stroke-linecap="round" stroke-linejoin="round">
        <path stroke="none" d="M0 0h24v24H0z" fill="none"></path>
        <path d="M4 17v2a2 2 0 0 0 2 2h12a2 2 0 0 0 2 -2v-2"></path>
        <path d="M7 11l5 5l5 -5"></path>
        <path d="M12 4l0 12"></path>
    </symbol>
    <symbol id="fgx-air-circle-x" class="icon icon-tabler icon-tabler-circle-x" viewBox="0 0 22 22" stroke-width="2" stroke="currentColor" fill="none" stroke-linecap="round" stroke-linejoin="round">
        <path stroke="none" d="M0 0h24v24H0z" fill="none"></path>
        <path d="M12 12m-9 0a9 9 0 1 0 18 0a9 9 0 1 0 -18 0"></path>
        <path d="M10 10l4 4m0 -4l-4 4"></path>
    </symbol>
    <symbol id="fgx-air-upload" class="icon icon-tabler icon-tabler-upload" viewBox="0 0 22 22" stroke-width="2" stroke="currentColor" fill="none" stroke-linecap="round" stroke-linejoin="round">
        <path stroke="none" d="M0 0h24v24H0z" fill="none"></path>
        <path d="M4 17v2a2 2 0 0 0 2 2h12a2 2 0 0 0 2 -2v-2"></path>
        <path d="M7 9l5 -5l5 5"></path>
        <path d="M12 4l0 12"></path>
    </symbol>
    <symbol id="fgx-air-book-2" class="icon icon-tabler icon-tabler-book-2" viewBox="0 0 22 22" stroke-width="2" stroke="currentColor" fill="none" stroke-linecap="round" stroke-linejoin="round">
        <path stroke="none" d="M0 0h24v24H0z" fill="none"></path>
        <path d="M19 4v16h-12a2 2 0 0 1 -2 -2v-12a2 2 0 0 1 2 -2h12z"></path>
        <path d="M19 16h-12a2 2 0 0 0 -2 2"></path>
        <path d="M9 8h6"></path>
    </symbol>
    <symbol id="fgx-air-puzzle" class="icon icon-tabler icon-tabler-puzzle" viewBox="0 0 22 22" stroke-width="2" stroke="currentColor" fill="none" stroke-linecap="round" stroke-linejoin="round">
        <path stroke="none" d="M0 0h24v24H0z" fill="none"></path>
        <path d="M4 7h3a1 1 0 0 0 1 -1v-1a2 2 0 0 1 4 0v1a1 1 0 0 0 1 1h3a1 1 0 0 1 1 1v3a1 1 0 0 0 1 1h1a2 2 0 0 1 0 4h-1a1 1 0 0 0 -1 1v3a1 1 0 0 1 -1 1h-3a1 1 0 0 1 -1 -1v-1a2 2 0 0 0 -4 0v1a1 1 0 0 1 -1 1h-3a1 1 0 0 1 -1 -1v-3a1 1 0 0 1 1 -1h1a2 2 0 0 0 0 -4h-1a1 1 0 0 1 -1 -1v-3a1 1 0 0 1 1 -1"></path>
    </symbol>
    <symbol id="fgx-air-users" class="icon icon-tabler icon-tabler-users" viewBox="0 0 22 22" stroke-width="2" stroke="currentColor" fill="none" stroke-linecap="round" stroke-linejoin="round">
        <path stroke="none" d="M0 0h24v24H0z" fill="none"></path>
        <path d="M9 7m-4 0a4 4 0 1 0 8 0a4 4 0 1 0 -8 0"></path>
        <path d="M3 21v-2a4 4 0 0 1 4 -4h4a4 4 0 0 1 4 4v2"></path>
        <path d="M16 3.13a4 4 0 0 1 0 7.75"></path>
        <path d="M21 21v-2a4 4 0 0 0 -3 -3.85"></path>
    </symbol>
    <symbol id="fgx-air-list" class="icon icon-tabler icon-tabler-list" viewBox="0 0 22 22" stroke-width="2" stroke="currentColor" fill="none" stroke-linecap="round" stroke-linejoin="round">
        <path stroke="none" d="M0 0h24v24H0z" fill="none"></path>
        <path d="M9 6l11 0"></path>
        <path d="M9 12l11 0"></path>
        <path d="M9 18l11 0"></path>
        <path d="M5 6l0 .01"></path>
        <path d="M5 12l0 .01"></path>
        <path d="M5 18l0 .01"></path>
    </symbol>
    <symbol id="fgx-air-question-circle" class="icon icon-tabler icon-tabler-question-circle" viewBox="0 0 22 22" stroke-width="2" stroke="currentColor" fill="none" stroke-linecap="round" stroke-linejoin="round">
        <path stroke="none" d="M0 0h24v24H0z" fill="none"></path>
        <path d="M12 16v.01"></path>
        <path d="M12 13a2 2 0 0 0 .914 -3.782a1.98 1.98 0 0 0 -2.414 .483"></path>
        <path d="M12 12m-9 0a9 9 0 1 0 18 0a9 9 0 1 0 -18 0"></path>
    </symbol>
    <symbol id="fgx-air-question-mark" class="icon icon-tabler icon-tabler-question-mark" viewBox="0 0 22 22" stroke-width="2" stroke="currentColor" fill="none" stroke-linecap="round" stroke-linejoin="round">
        <path stroke="none" d="M0 0h24v24H0z" fill="none"></path>
        <path d="M8 8a3.5 3 0 0 1 3.5 -3h1a3.5 3 0 0 1 3.5 3a3 3 0 0 1 -2 3a3 4 0 0 0 -2 4"></path>
        <path d="M12 19l0 .01"></path>
    </symbol>
    <symbol id="fgx-air-chart-pie" class="icon icon-tabler icon-tabler-chart-pie" viewBox="0 0 22 22" stroke-width="2" stroke="currentColor" fill="none" stroke-linecap="round" stroke-linejoin="round">
        <path stroke="none" d="M0 0h24v24H0z" fill="none"></path>
        <path d="M10 3.2a9 9 0 1 0 10.8 10.8a1 1 0 0 0 -1 -1h-6.8a2 2 0 0 1 -2 -2v-7a0.9 .9 0 0 0 -1 -.8"></path>
        <path d="M15 3.5a9 9 0 0 1 5.5 5.5h-4.5a1 1 0 0 1 -1 -1v-4.5"></path>
    </symbol>
    <symbol id="fgx-air-file" class="icon icon-tabler icon-tabler-file" viewBox="0 0 22 22" stroke-width="2" stroke="currentColor" fill="none" stroke-linecap="round" stroke-linejoin="round">
        <path stroke="none" d="M0 0h24v24H0z" fill="none"></path>
        <path d="M14 3v4a1 1 0 0 0 1 1h4"></path>
        <path d="M17 21h-10a2 2 0 0 1 -2 -2v-14a2 2 0 0 1 2 -2h7l5 5v11a2 2 0 0 1 -2 2z"></path>
    </symbol>
    <symbol id="fgx-air-archive" class="icon icon-tabler icon-tabler-archive" viewBox="0 0 22 22" stroke-width="2" stroke="currentColor" fill="none" stroke-linecap="round" stroke-linejoin="round">
        <path stroke="none" d="M0 0h24v24H0z" fill="none"></path>
        <path d="M3 4m0 2a2 2 0 0 1 2 -2h14a2 2 0 0 1 2 2v0a2 2 0 0 1 -2 2h-14a2 2 0 0 1 -2 -2z"></path>
        <path d="M5 8v10a2 2 0 0 0 2 2h10a2 2 0 0 0 2 -2v-10"></path>
        <path d="M10 12l4 0"></path>
    </symbol>
    <symbol id="fgx-air-chevrons-up" class="icon icon-tabler icon-tabler-chevrons-up" viewBox="0 0 22 22" stroke-width="2" stroke="currentColor" fill="none" stroke-linecap="round" stroke-linejoin="round">
        <path stroke="none" d="M0 0h24v24H0z" fill="none"></path>
        <path d="M7 11l5 -5l5 5"></path>
        <path d="M7 17l5 -5l5 5"></path>
    </symbol>
    <symbol id="fgx-air-chevrons-down" class="icon icon-tabler icon-tabler-chevrons-down" viewBox="0 0 22 22" stroke-width="2" stroke="currentColor" fill="none" stroke-linecap="round" stroke-linejoin="round">
        <path stroke="none" d="M0 0h24v24H0z" fill="none"></path>
        <path d="M7 7l5 5l5 -5"></path>
        <path d="M7 13l5 5l5 -5"></path>
    </symbol>
        <symbol id="fgx-air-minus" class="icon icon-tabler icon-tabler-minus" viewBox="0 0 22 22" stroke-width="2" stroke="currentColor" fill="none" stroke-linecap="round" stroke-linejoin="round">
        <path stroke="none" d="M0 0h24v24H0z" fill="none"></path>
        <path d="M5 12l14 0"></path>
    </symbol>
    <symbol id="fgx-air-photo" class="icon icon-tabler icon-tabler-photo" viewBox="0 0 22 22" stroke-width="2" stroke="currentColor" fill="none" stroke-linecap="round" stroke-linejoin="round">
        <path stroke="none" d="M0 0h24v24H0z" fill="none"></path>
        <path d="M15 8l.01 0"></path>
        <path d="M4 4m0 3a3 3 0 0 1 3 -3h10a3 3 0 0 1 3 3v10a3 3 0 0 1 -3 3h-10a3 3 0 0 1 -3 -3z"></path>
        <path d="M4 15l4 -4a3 5 0 0 1 3 0l5 5"></path>
        <path d="M14 14l1 -1a3 5 0 0 1 3 0l2 2"></path>
    </symbol>
    <symbol id="fgx-air-filter" class="icon icon-tabler icon-tabler-filter" viewBox="0 0 22 22" stroke-width="2" stroke="currentColor" fill="none" stroke-linecap="round" stroke-linejoin="round">
        <path stroke="none" d="M0 0h24v24H0z" fill="none"></path>
        <path d="M5.5 5h13a1 1 0 0 1 .5 1.5l-5 5.5l0 7l-4 -3l0 -4l-5 -5.5a1 1 0 0 1 .5 -1.5"></path>
    </symbol>
    <symbol id="fgx-air-arrow-up" class="icon icon-tabler icon-tabler-arrow-up" viewBox="0 0 22 22" stroke-width="2" stroke="currentColor" fill="none" stroke-linecap="round" stroke-linejoin="round">
        <path stroke="none" d="M0 0h24v24H0z" fill="none"></path>
        <path d="M12 5l0 14"></path>
        <path d="M18 11l-6 -6"></path>
        <path d="M6 11l6 -6"></path>
    </symbol>
    <symbol id="fgx-air-arrow-down" class="icon icon-tabler icon-tabler-arrow-down" viewBox="0 0 22 22" stroke-width="2" stroke="currentColor" fill="none" stroke-linecap="round" stroke-linejoin="round">
        <path stroke="none" d="M0 0h24v24H0z" fill="none"></path>
        <path d="M12 5l0 14"></path>
        <path d="M18 13l-6 6"></path>
        <path d="M6 13l6 6"></path>
    </symbol>
    <symbol id="fgx-air-history" class="icon icon-tabler icon-tabler-history" viewBox="0 0 22 22" stroke-width="2" stroke="currentColor" fill="none" stroke-linecap="round" stroke-linejoin="round">
        <path stroke="none" d="M0 0h24v24H0z" fill="none"></path>
        <path d="M12 8l0 4l2 2"></path>
        <path d="M3.05 11a9 9 0 1 1 .5 4m-.5 5v-5h5"></path>
    </symbol>
    <symbol id="fgx-air-info-circle" class="icon icon-tabler icon-tabler-info-circle" viewBox="0 0 22 22" stroke-width="2" stroke="currentColor" fill="none" stroke-linecap="round" stroke-linejoin="round">
        <path stroke="none" d="M0 0h24v24H0z" fill="none"></path>
        <path d="M12 12m-9 0a9 9 0 1 0 18 0a9 9 0 1 0 -18 0"></path>
        <path d="M12 8l.01 0"></path>
        <path d="M11 12l1 0l0 4l1 0"></path>
    </symbol>
    <symbol id="fgx-air-rocket" class="icon icon-tabler icon-tabler-rocket" viewBox="0 0 22 22" stroke-width="2" stroke="currentColor" fill="none" stroke-linecap="round" stroke-linejoin="round">
        <path stroke="none" d="M0 0h24v24H0z" fill="none"></path>
        <path d="M4 13a8 8 0 0 1 7 7a6 6 0 0 0 3 -5a9 9 0 0 0 6 -8a3 3 0 0 0 -3 -3a9 9 0 0 0 -8 6a6 6 0 0 0 -5 3"></path>
        <path d="M7 14a6 6 0 0 0 -3 6a6 6 0 0 0 6 -3"></path>
        <path d="M15 9m-1 0a1 1 0 1 0 2 0a1 1 0 1 0 -2 0"></path>
    </symbol>
    <symbol id="fgx-air-refresh" class="icon icon-tabler icon-tabler-refresh" viewBox="0 0 22 22" stroke-width="2" stroke="currentColor" fill="none" stroke-linecap="round" stroke-linejoin="round">
        <path stroke="none" d="M0 0h24v24H0z" fill="none"></path>
        <path d="M20 11a8.1 8.1 0 0 0 -15.5 -2m-.5 -4v4h4"></path>
        <path d="M4 13a8.1 8.1 0 0 0 15.5 2m.5 4v-4h-4"></path>
    </symbol>
    <symbol id="fgx-air-logout" class="icon icon-tabler icon-tabler-logout" viewBox="0 0 22 22" stroke-width="2" stroke="currentColor" fill="none" stroke-linecap="round" stroke-linejoin="round">
        <path stroke="none" d="M0 0h24v24H0z" fill="none"></path>
        <path d="M14 8v-2a2 2 0 0 0 -2 -2h-7a2 2 0 0 0 -2 2v12a2 2 0 0 0 2 2h7a2 2 0 0 0 2 -2v-2"></path>
        <path d="M7 12h14l-3 -3m0 6l3 -3"></path>
    </symbol>
    <symbol id="fgx-air-shield-filled" class="icon icon-tabler icon-tabler-shield-filled" viewBox="0 0 22 22" stroke-width="2" stroke="currentColor" fill="none" stroke-linecap="round" stroke-linejoin="round">
        <path stroke="none" d="M0 0h24v24H0z" fill="none"></path>
        <path d="M12 3a12 12 0 0 0 8.5 3a12 12 0 0 1 -8.5 15a12 12 0 0 1 -8.5 -15a12 12 0 0 0 8.5 -3" fill="currentColor"></path>
    </symbol>
    <symbol id="fgx-air-folder" class="icon icon-tabler icon-tabler-folder" viewBox="0 0 22 22" stroke-width="2" stroke="currentColor" fill="none" stroke-linecap="round" stroke-linejoin="round">
        <path stroke="none" d="M0 0h24v24H0z" fill="none"></path>
        <path d="M5 4h4l3 3h7a2 2 0 0 1 2 2v8a2 2 0 0 1 -2 2h-14a2 2 0 0 1 -2 -2v-11a2 2 0 0 1 2 -2"></path>
    </symbol>
    <symbol id="fgx-air-hourglass-high" class="icon icon-tabler icon-tabler-hourglass-high" viewBox="0 0 22 22" stroke-width="2" stroke="currentColor" fill="none" stroke-linecap="round" stroke-linejoin="round">
        <path stroke="none" d="M0 0h24v24H0z" fill="none"></path>
        <path d="M6.5 7h11"></path>
        <path d="M6 20v-2a6 6 0 1 1 12 0v2a1 1 0 0 1 -1 1h-10a1 1 0 0 1 -1 -1z"></path>
        <path d="M6 4v2a6 6 0 1 0 12 0v-2a1 1 0 0 0 -1 -1h-10a1 1 0 0 0 -1 1z"></path>
    </symbol>
</svg>