<?xml version="1.0" encoding="UTF-8"?>
<svg xmlns="http://www.w3.org/2000/svg" style="display: none;">

    <symbol id="fgx-air-pin" class="icon icon-tabler icon-tabler-pin" width="36" height="36" viewBox="6 6 36 36" stroke-width="2" stroke="currentColor" fill="none" stroke-linecap="round" stroke-linejoin="round">
        <path stroke="none" d="M0 0h24v24H0z" fill="none"></path>
        <path d="M9 4v6l-2 4v2h10v-2l-2 -4v-6" fill="currentColor"></path>
        <path d="M12 16l0 5"></path>
        <path d="M8 4l8 0"></path>
    </symbol>
    <symbol id="fgx-air-lock" class="icon icon-tabler icon-tabler-lock" width="24" height="24" viewBox="0 0 24 24" stroke-width="2" stroke="currentColor" fill="none" stroke-linecap="round" stroke-linejoin="round">
        <path stroke="none" d="M0 0h24v24H0z" fill="none"></path>
        <path d="M5 11m0 2a2 2 0 0 1 2 -2h10a2 2 0 0 1 2 2v6a2 2 0 0 1 -2 2h-10a2 2 0 0 1 -2 -2z"></path>
        <path d="M12 16m-1 0a1 1 0 1 0 2 0a1 1 0 1 0 -2 0"></path>
        <path d="M8 11v-4a4 4 0 0 1 8 0v4"></path>
    </symbol>

</svg>